# xmcd
#
# Track frame offsets:
#	150
#	23370
#	42807
#	55682
#	69475
#	90400
#	116357
#	144312
#	159150
#	186142
#	210977
#	231127
#	254037
#	267840
#	283652
#	308410
#
# Disc length: 4370 seconds
#
# Revision: 3
# Processed by: cddbd v1.5.2PL0 Copyright (c) Steve Scherf et al.
# Submitted via: EZCDAudioConverter 2.2.0.1
#
DISCID=c6111010
DTITLE=Santana - The Very Best
DYEAR=1900
DGENRE=blues
TTITLE0=Luz amor y vida
TTITLE1=Oye como va
TTITLE2=Jingo
TTITLE3=Evil Ways
TTITLE4=Samba pa ti
TTITLE5=Guajira
TTITLE6=Gitano
TTITLE7=Black Magic Woman
TTITLE8=Esperando
TTITLE9=Dance Sister Dance
TTITLE10=Changes
TTITLE11=Europa (Earth's Cry Heaven's Smile)
TTITLE12=Let The Children Play
TTITLE13=Shades Of Time
TTITLE14=No One To Depend On
TTITLE15=Daughter Of The Night
EXTD=
EXTT0=
EXTT1=
EXTT2=
EXTT3=
EXTT4=
EXTT5=
EXTT6=
EXTT7=
EXTT8=
EXTT9=
EXTT10=
EXTT11=
EXTT12=
EXTT13=
EXTT14=
EXTT15=
PLAYORDER=
